<?xml version="1.0" encoding="UTF-8"?><svg id="a_copy" xmlns="http://www.w3.org/2000/svg" viewBox="0 0 120.5 87"><defs><style>.cls-1{fill:none;stroke:#000;stroke-miterlimit:10;}</style></defs><path class="cls-1" d="m89.9,19.6l18.2,54.6c2.9,8.6,6,9.9,11.9,9.9v2.4h-35.4v-2.3c6,0,13.5,1.3,10.7-9.4l-18.1-53.3-20.5,65h-1.9l-8.5-26.4h-25.6c-1.9,5.9-4.7,12.8-2.1,19.1,1.8,4.3,3.6,4.8,6.8,5v2.3H.5v-2.3c3.5-.5,5.2-1.4,7.9-4.3,3.1-3.4,6.1-9.6,9.1-18.7l14.7-46.4c-2.1-6.9-4.2-12-10.5-12h-2.3V.5h20.4l21.3,63.1L81,.5h19.3v2.3h-2.3c-9.5,0-12.4,6.5-8.1,16.8h0ZM21.9,56.5h23.2l-11.7-37.3-11.5,37.3h0Z"/></svg>