<?xml version="1.0" encoding="utf-8"?>
<!-- Generator: Adobe Illustrator 27.3.1, SVG Export Plug-In . SVG Version: 6.00 Build 0)  -->
<svg version="1.1" xmlns="http://www.w3.org/2000/svg" xmlns:xlink="http://www.w3.org/1999/xlink" x="0px" y="0px"
	 viewBox="0 0 120.5 87" style="enable-background:new 0 0 120.5 87;" xml:space="preserve">
<style type="text/css">
	.st0{display:none;}
	.st1{display:inline;fill:#303236;}
	.st2{fill:none;stroke:#000000;stroke-miterlimit:10;}
</style>
<g id="a" class="st0">
	<path class="st1" d="M238,19.2l18.2,54.6c2.9,8.6,6,9.9,11.9,9.9v2.4h-35.4v-2.3c6,0,13.5,1.3,10.7-9.4l-18.1-53.3l-20.5,65h-1.9
		l-8.5-26.4h-25.6c-1.9,5.9-4.7,12.8-2.1,19.1c1.8,4.3,3.6,4.8,6.8,5v2.3h-24.9v-2.3c3.5-0.5,5.2-1.4,7.9-4.3
		c3.1-3.4,6.1-9.6,9.1-18.7l14.7-46.4c-2.1-6.9-4.2-12-10.5-12h-2.3V0.1h20.4l21.3,63.1l19.9-63.1h19.3v2.3h-2.3
		C236.6,2.4,233.7,8.9,238,19.2L238,19.2z M170,56.1h23.2l-11.7-37.3L170,56.1L170,56.1z"/>
</g>
<g id="a_copy">
	<path class="st2" d="M89.9,19.6l18.2,54.6c2.9,8.6,6,9.9,11.9,9.9v2.4H84.6v-2.3c6,0,13.5,1.3,10.7-9.4L77.2,21.5l-20.5,65h-1.9
		l-8.5-26.4H20.7C18.8,66,16,72.9,18.6,79.2c1.8,4.3,3.6,4.8,6.8,5v2.3H0.5v-2.3c3.5-0.5,5.2-1.4,7.9-4.3c3.1-3.4,6.1-9.6,9.1-18.7
		l14.7-46.4c-2.1-6.9-4.2-12-10.5-12h-2.3V0.5h20.4l21.3,63.1L81,0.5h19.3v2.3H98C88.5,2.8,85.6,9.3,89.9,19.6L89.9,19.6z
		 M21.9,56.5h23.2L33.4,19.2L21.9,56.5L21.9,56.5z"/>
</g>
</svg>
