<?xml version="1.0" encoding="utf-8"?>
<!-- Generator: Adobe Illustrator 27.3.1, SVG Export Plug-In . SVG Version: 6.00 Build 0)  -->
<svg version="1.1" id="a" xmlns="http://www.w3.org/2000/svg" xmlns:xlink="http://www.w3.org/1999/xlink" x="0px" y="0px"
	 viewBox="0 0 119.6 86" style="enable-background:new 0 0 119.6 86;" xml:space="preserve">
<style type="text/css">
	.st0{fill:#303236;}
</style>
<path class="st0" d="M89.4,19.1l18.2,54.6c2.9,8.6,6,9.9,11.9,9.9V86H84.1v-2.3c6,0,13.5,1.3,10.7-9.4L76.7,21L56.2,86h-1.9
	l-8.5-26.4H20.2c-1.9,5.9-4.7,12.8-2.1,19.1c1.8,4.3,3.6,4.8,6.8,5V86H0v-2.3c3.5-0.5,5.2-1.4,7.9-4.3C11,76,14,69.8,17,60.7
	l14.7-46.4c-2.1-6.9-4.2-12-10.5-12h-2.3V0h20.4l21.3,63.1L80.5,0h19.3v2.3h-2.3C88,2.3,85.1,8.8,89.4,19.1L89.4,19.1z M21.4,56
	h23.2L32.9,18.7L21.4,56L21.4,56z"/>
</svg>
