<?xml version="1.0" encoding="utf-8"?>
<!-- Generator: Adobe Illustrator 27.3.1, SVG Export Plug-In . SVG Version: 6.00 Build 0)  -->
<svg version="1.1" id="Layer_1" xmlns="http://www.w3.org/2000/svg" xmlns:xlink="http://www.w3.org/1999/xlink" x="0px" y="0px"
	 viewBox="0 0 560.1 86" style="enable-background:new 0 0 560.1 86;" xml:space="preserve">
<style type="text/css">
	.st0{fill:#303236;}
</style>
<g>
	<path class="st0" d="M89.4,19.1l18.2,54.6c2.9,8.6,6.1,9.9,11.9,9.9V86H84.1v-2.3c6,0,13.5,1.3,10.7-9.4L76.7,21L56.2,86h-1.9
		l-8.5-26.4H20.2c-1.9,5.9-4.7,12.8-2.1,19.1c1.8,4.3,3.6,4.8,6.8,5V86H0v-2.3c3.5-0.6,5.2-1.5,7.9-4.3C11,76,14,69.8,17,60.7
		l14.7-46.4c-2.1-6.9-4.2-12-10.5-12h-2.3V0h20.4l21.3,63.1L80.5,0h19.3v2.3h-2.3C88,2.3,85.1,8.8,89.4,19.1L89.4,19.1z M21.4,56
		h23.3L32.9,18.7L21.4,56L21.4,56z"/>
	<g>
		<path class="st0" d="M140.8,48.7h-14.5l-5,12.6h-2.8l14.4-35.8h1.6l14.1,35.8h-2.8L140.8,48.7z M127.2,46.5H140l-4.9-12.9
			c-0.4-1-0.9-2.4-1.5-4.2c-0.4,1.6-0.9,3-1.4,4.2L127.2,46.5z"/>
		<path class="st0" d="M177.1,61.3h-2.5l-21.1-31.7h-0.2c0.2,3.8,0.3,6.6,0.3,8.5v23.1h-2.4V25.6h2.5l21.1,31.6h0.1
			c-0.1-2.9-0.2-5.7-0.2-8.3V25.6h2.4V61.3z"/>
		<path class="st0" d="M211.8,43.1c0,6-1.6,10.5-4.7,13.6c-3.1,3.1-7.8,4.6-13.8,4.6h-8.5V25.6h9.6c5.7,0,10,1.5,13,4.5
			C210.3,33.1,211.8,37.4,211.8,43.1z M209.1,43.2c0-5.1-1.3-9-3.9-11.5c-2.6-2.6-6.4-3.9-11.4-3.9h-6.6v31.3h5.9
			C203.8,59.1,209.1,53.8,209.1,43.2z"/>
		<path class="st0" d="M220,45.8v15.6h-2.5V25.6h8.5c4.4,0,7.7,0.8,9.8,2.5c2.1,1.6,3.2,4.1,3.2,7.4c0,2.4-0.6,4.4-1.9,6.1
			c-1.3,1.6-3.2,2.8-5.7,3.5l9.7,16.3h-3l-9.2-15.6H220z M220,43.6h6.8c3,0,5.3-0.7,7-2s2.5-3.3,2.5-5.9c0-2.7-0.8-4.7-2.4-5.9
			c-1.6-1.2-4.3-1.9-8-1.9H220V43.6z"/>
		<path class="st0" d="M244.7,61.3V25.6h2.5v35.7H244.7z"/>
		<path class="st0" d="M249,70.3c-1.5,0-2.7-0.2-3.7-0.7v-2.1c1.3,0.3,2.5,0.5,3.6,0.5c3.9,0,5.9-2.1,5.9-6.4V25.6h2.5v35.7
			C257.3,67.3,254.5,70.3,249,70.3z"/>
		<path class="st0" d="M281.9,48.7h-14.5l-5,12.6h-2.8L274,25.5h1.6l14.1,35.8h-2.8L281.9,48.7z M268.3,46.5H281l-4.9-12.9
			c-0.4-1-0.9-2.4-1.5-4.2c-0.4,1.6-0.9,3-1.4,4.2L268.3,46.5z"/>
		<path class="st0" d="M306.7,61.3l-8.6-28h-0.2c0.3,5.7,0.5,9.5,0.5,11.4v16.6h-6.8V25.6h10.3l8.4,27.3h0.1l9-27.3h10.3v35.7h-7.1
			V44.4c0-0.8,0-1.7,0-2.8c0-1,0.1-3.8,0.3-8.3h-0.2l-9.2,28H306.7z"/>
		<path class="st0" d="M336.3,61.3V25.6h7.6v35.7H336.3z"/>
		<path class="st0" d="M365.5,31.4c-2.8,0-5.1,1.1-6.6,3.2c-1.6,2.1-2.3,5.1-2.3,8.9c0,8,3,11.9,9,11.9c2.5,0,5.5-0.6,9.1-1.9V60
			c-2.9,1.2-6.2,1.8-9.8,1.8c-5.2,0-9.2-1.6-11.9-4.7c-2.8-3.1-4.1-7.7-4.1-13.6c0-3.7,0.7-7,2-9.8c1.4-2.8,3.3-4.9,5.8-6.4
			c2.5-1.5,5.5-2.2,8.9-2.2c3.5,0,6.9,0.8,10.4,2.5l-2.4,6.2c-1.3-0.6-2.7-1.2-4-1.7C368.1,31.7,366.8,31.4,365.5,31.4z"/>
		<path class="st0" d="M408.7,25.6v23.1c0,2.6-0.6,4.9-1.8,6.9c-1.2,2-2.9,3.5-5.1,4.6c-2.2,1.1-4.9,1.6-7.9,1.6
			c-4.6,0-8.2-1.2-10.7-3.5s-3.8-5.6-3.8-9.7v-23h7.5v21.9c0,2.8,0.6,4.8,1.7,6.1c1.1,1.3,2.9,1.9,5.5,1.9c2.5,0,4.3-0.6,5.4-1.9
			c1.1-1.3,1.7-3.3,1.7-6.1V25.6H408.7z"/>
		<path class="st0" d="M446.6,61.3H437l-15.5-27h-0.2c0.3,4.8,0.5,8.2,0.5,10.2v16.8H415V25.6h9.5L440,52.4h0.2
			c-0.2-4.6-0.4-7.9-0.4-9.8V25.6h6.8V61.3z"/>
		<path class="st0" d="M485.5,43.4c0,5.9-1.5,10.4-4.4,13.6s-7.1,4.8-12.6,4.8s-9.7-1.6-12.6-4.8s-4.4-7.7-4.4-13.7
			c0-5.9,1.5-10.5,4.4-13.6c2.9-3.1,7.1-4.7,12.6-4.7c5.5,0,9.7,1.6,12.6,4.7C484.1,33,485.5,37.5,485.5,43.4z M459.5,43.4
			c0,4,0.8,7,2.3,9c1.5,2,3.8,3,6.8,3c6,0,9.1-4,9.1-12c0-8-3-12.1-9-12.1c-3,0-5.3,1-6.8,3C460.2,36.4,459.5,39.5,459.5,43.4z"/>
		<path class="st0" d="M510.8,25.6h7.6l-12.1,35.7H498l-12.1-35.7h7.6l6.7,21.2c0.4,1.3,0.8,2.7,1.2,4.4c0.4,1.7,0.6,2.8,0.7,3.5
			c0.2-1.5,0.8-4.1,1.8-7.9L510.8,25.6z"/>
		<path class="st0" d="M520.4,61.3V25.6h7.6v35.7H520.4z"/>
		<path class="st0" d="M549.6,31.4c-2.8,0-5.1,1.1-6.6,3.2c-1.6,2.1-2.3,5.1-2.3,8.9c0,8,3,11.9,9,11.9c2.5,0,5.5-0.6,9.1-1.9V60
			c-2.9,1.2-6.2,1.8-9.8,1.8c-5.2,0-9.2-1.6-11.9-4.7c-2.8-3.1-4.1-7.7-4.1-13.6c0-3.7,0.7-7,2-9.8c1.4-2.8,3.3-4.9,5.8-6.4
			c2.5-1.5,5.5-2.2,8.9-2.2c3.5,0,6.9,0.8,10.4,2.5l-2.4,6.2c-1.3-0.6-2.7-1.2-4-1.7C552.2,31.7,550.9,31.4,549.6,31.4z"/>
	</g>
</g>
</svg>
